HIERARCHY
ROOT RootJoint
{
    OFFSET   0.000000   0.000000   0.000000
    CHANNELS 6 Xposition Yposition Zposition Xrotation Yrotation Zrotation
    JOINT pelvis_lowerback
    {
        OFFSET   0.000000   0.093605   0.000000
        CHANNELS 3 Xrotation Yrotation Zrotation
        JOINT lowerback_torso
        {
            OFFSET   0.000000   0.100000   0.000000
            CHANNELS 3 Xrotation Yrotation Zrotation
            JOINT torso_head
            {
                OFFSET   0.000000   0.282350   0.000000
                CHANNELS 3 Xrotation Yrotation Zrotation
                End Site
                {
                    OFFSET   0.000000   0.192650   0.000000
                }
            }
            JOINT rTorso_Clavicle
            {
                OFFSET  -0.001000   0.157500   0.000000
                CHANNELS 3 Xrotation Yrotation Zrotation
                JOINT rShoulder
                {
                    OFFSET  -0.117647   0.000000   0.000000
                    CHANNELS 3 Xrotation Yrotation Zrotation
                    JOINT rElbow
                    {
                        OFFSET  -0.245000   0.000000   0.000000
                        CHANNELS 3 Xrotation Yrotation Zrotation
                        JOINT rWrist
                        {
                            OFFSET  -0.240000   0.000000   0.000000
                            CHANNELS 3 Xrotation Yrotation Zrotation
                            End Site
                            {
                                OFFSET  -0.116353  -0.002500   0.000000
                            }
                        }
                    }
                }
            }
            JOINT lTorso_Clavicle
            {
                OFFSET   0.001000   0.157500   0.000000
                CHANNELS 3 Xrotation Yrotation Zrotation
                JOINT lShoulder
                {
                    OFFSET   0.117647   0.000000   0.000000
                    CHANNELS 3 Xrotation Yrotation Zrotation
                    JOINT lElbow
                    {
                        OFFSET   0.245000   0.000000   0.000000
                        CHANNELS 3 Xrotation Yrotation Zrotation
                        JOINT lWrist
                        {
                            OFFSET   0.240000   0.000000   0.000000
                            CHANNELS 3 Xrotation Yrotation Zrotation
                            End Site
                            {
                                OFFSET   0.116353  -0.002500   0.000000
                            }
                        }
                    }
                }
            }
        }
    }
    JOINT rHip
    {
        OFFSET  -0.100000  -0.051395   0.000000
        CHANNELS 3 Xrotation Yrotation Zrotation
        JOINT rKnee
        {
            OFFSET   0.000000  -0.410000   0.000000
            CHANNELS 3 Xrotation Yrotation Zrotation
            JOINT rAnkle
            {
                OFFSET   0.000000  -0.390000   0.000000
                CHANNELS 3 Xrotation Yrotation Zrotation
                JOINT rToeJoint
                {
                    OFFSET   0.000000  -0.050000   0.130000
                    CHANNELS 3 Xrotation Yrotation Zrotation
                    End Site
                    {
                        OFFSET  -0.010000   0.002000   0.060000
                    }
                }
            }
        }
    }
    JOINT lHip
    {
        OFFSET   0.100000  -0.051395   0.000000
        CHANNELS 3 Xrotation Yrotation Zrotation
        JOINT lKnee
        {
            OFFSET   0.000000  -0.410000   0.000000
            CHANNELS 3 Xrotation Yrotation Zrotation
            JOINT lAnkle
            {
                OFFSET   0.000000  -0.390000   0.000000
                CHANNELS 3 Xrotation Yrotation Zrotation
                JOINT lToeJoint
                {
                    OFFSET   0.000000  -0.050000   0.130000
                    CHANNELS 3 Xrotation Yrotation Zrotation
                    End Site
                    {
                        OFFSET   0.010000   0.002000   0.060000
                    }
                }
            }
        }
    }
}
MOTION
Frames: 15
Frame Time:   0.008333
 -2.303773   0.847317   4.107851  -0.004362  23.660966  -3.990820  -3.403037   0.355901   1.502437   9.546089   0.157026   3.437372  -9.837661  -4.827507   0.362825   0.441252   6.570838  11.017861   1.666768  16.669433  43.300026   0.036285  82.022721  -0.039640   2.707131   3.978451  -0.482947   7.259961  -1.917788 -10.563220  38.887682 -11.725949 -38.202422  -0.022368 -74.600018  -0.016535   3.184077  -6.626311  -0.884033  -8.328687  -5.654122  -1.307838  83.429163   0.128608   0.001950  -8.641414   0.042991   5.317050  -7.297865   0.029091  -0.004939 -25.097207   0.149634  -4.722017  60.213286  -0.006739  -0.010149 -41.274239  -1.671081   5.506460  -0.412561  -0.002653   0.003060
 -2.299253   0.843586   4.115110  -0.246861  24.412622  -3.603734  -3.372919  -0.066820   1.267892   9.628147  -0.379055   3.054116  -9.892652  -4.493126   0.528410   0.489934   5.946166  11.274013   2.080716  16.113637  43.517264   0.087168  80.449574  -0.093501   2.633908   4.107688  -0.378596   7.075771  -2.235873 -11.034514  37.860719 -12.710251 -38.590483  -0.020795 -74.260781  -0.015287   3.289674  -6.554693  -0.886347  -9.265100  -5.371170  -1.950840  85.933567   0.123455  -0.004739  -8.543284  -0.164801   4.888873  -6.681538   0.030708  -0.004551 -22.292419  -0.468918  -5.110041  58.679670  -0.005789  -0.011276 -41.523082  -1.694456   5.903126  -0.105304  -0.003407   0.002726
 -2.294965   0.839185   4.121910  -0.411084  25.142379  -3.279162  -3.275102  -0.538101   1.050623   9.687046  -0.954076   2.674669  -9.948927  -4.170466   0.674440   0.523342   5.338390  11.516077   2.451810  15.563813  43.718749   0.115145  78.949070  -0.123986   2.549419   4.051910  -0.502736   6.817166  -2.595298 -11.478630  36.822592 -13.671879 -38.954514  -0.019793 -73.979214  -0.015050   3.391463  -6.602018  -0.756870 -10.505820  -5.084989  -2.542516  88.127990   0.115775  -0.009130  -8.471547  -0.358153   4.488320  -6.200734   0.030054  -0.003946 -19.493033  -1.133194  -5.442490  57.000449  -0.005250  -0.012003 -41.760023  -1.720543   6.273915   0.191090  -0.003822   0.002418
 -2.290865   0.833987   4.128458  -0.551879  25.855617  -2.995304  -3.125393  -1.045913   0.837340   9.759809  -1.560892   2.315169  -9.994029  -3.869737   0.809305   0.559772   4.754942  11.729193   2.801440  15.037377  43.900733   0.127354  77.542915  -0.137920   2.465597   3.936991  -0.696856   6.520815  -2.978161 -11.887363  35.806281 -14.589639 -39.290930  -0.019165 -73.735275  -0.015315   3.490534  -6.747840  -0.560213 -11.919553  -4.805327  -3.089215  90.078392   0.106802  -0.011892  -8.412286  -0.537866   4.114124  -5.779666   0.028564  -0.003360 -16.721652  -1.793030  -5.708464  55.409006  -0.005342  -0.012413 -41.980523  -1.746357   6.619939   0.470057  -0.003947   0.002189
 -2.286904   0.827943   4.134867  -0.682226  26.547442  -2.740167  -2.944031  -1.574280   0.625217   9.848769  -2.183377   1.975300 -10.029054  -3.590134   0.933676   0.606022   4.193109  11.918031   3.136865  14.533882  44.066541   0.130230  76.227089  -0.141866   2.384198   3.799718  -0.908964   6.207986  -3.365889 -12.260391  34.826164 -15.455197 -39.604419  -0.018650 -73.518444  -0.015645   3.587579  -6.948535  -0.331832 -13.436720  -4.528428  -3.599669  91.827293   0.097355  -0.013464  -8.362612  -0.705131   3.764669  -5.406659   0.026612  -0.002845 -13.993925  -2.436977  -5.917797  53.951052  -0.005794  -0.012449 -42.185188  -1.771500   6.942793   0.727147  -0.003847   0.001995
 -2.283047   0.821033   4.141203  -0.803806  27.215300  -2.509580  -2.746252  -2.110093   0.415841   9.949260  -2.808001   1.654341 -10.056701  -3.330156   1.047952   0.663850   3.651601  12.087091   3.460890  14.052085  44.218858   0.127539  74.995540  -0.139721   2.305390   3.647540  -1.124105   5.891941  -3.746353 -12.601306  33.889371 -16.266378 -39.900198  -0.018106 -73.322714  -0.015824   3.682589  -7.176901  -0.090054 -15.009705  -4.253007  -4.076013  93.404887   0.087953  -0.014139  -8.320722  -0.861015   3.438395  -5.074913   0.024424  -0.002407 -11.324807  -3.061070  -6.079209  52.627034  -0.006403  -0.012141 -42.375088  -1.795937   7.244035   0.962466  -0.003594   0.001815
 -2.278780   0.814585   4.147915  -1.182634  27.590960  -1.943257  -2.448705  -2.536887   0.045501  10.158233  -3.356262   1.263768 -10.078826  -3.084715   1.143643   0.736568   3.166705  12.329884   3.778057  13.603470  44.387347   0.122860  73.819513  -0.136534   2.232663   3.405587  -1.285718   5.589136  -4.105291 -12.977346  33.005351 -17.013460 -40.185053  -0.018515 -73.108113  -0.016851   3.774676  -7.277411   0.170387 -16.414206  -3.844560  -4.716696  94.772719   0.076148  -0.014419  -8.283481  -1.010839   3.129491  -4.759438   0.021822  -0.002264  -9.033198  -3.678313  -6.394307  52.435526  -0.004872  -0.009665 -42.568275  -1.891547   7.659680   1.257062  -0.003937   0.000422
 -2.273994   0.810722   4.155466  -1.643897  27.439157  -1.420245  -1.958760  -2.619417  -0.163679  10.080895  -3.796108   0.914033  -9.970960  -2.644026   1.131106   0.944403   2.640655  12.498965   4.375320  12.997563  44.488281   0.106478  73.349420  -0.119184   2.077334   2.830790  -1.216562   5.349480  -4.491408 -13.191590  31.736855 -17.758192 -40.796273  -0.013924 -73.202531  -0.012524   3.824782  -6.728228  -0.034969 -17.909676  -3.086356  -5.038507  94.832825   0.061046  -0.011857  -8.737046  -1.232178   3.003681  -4.266655   0.019285  -0.002137  -6.754071  -4.129334  -6.569536  51.612974  -0.001345  -0.005770 -42.235160  -2.345896   7.564944   1.303120  -0.003124  -0.000102
 -2.268634   0.809614   4.163841  -2.315374  27.327494  -0.724540  -1.371911  -2.796309  -0.398441  10.040944  -4.291974   0.569586  -9.861453  -2.222813   1.113794   1.180964   2.109588  12.652994   4.965262  12.413276  44.593024   0.093475  72.932956  -0.105498   1.930332   2.399047  -1.069721   5.040402  -4.909567 -13.389231  30.472923 -18.480194 -41.371948  -0.009940 -73.330738  -0.008482   3.869291  -6.318907  -0.123793 -19.349058  -2.401499  -5.343372  94.371881   0.047792  -0.009656  -9.183929  -1.436732   2.884527  -3.840695   0.016514  -0.001588  -4.860340  -4.236917  -6.980353  50.580752  -0.000950  -0.003074 -42.546598  -2.694589   7.482501   0.945109  -0.003082   0.001399
 -2.263146   0.809948   4.173128  -2.965359  27.328104  -0.178897  -0.868831  -3.077333  -0.519195   9.960518  -4.851439   0.304860  -9.743094  -1.831099   1.101948   1.434053   1.557520  12.724290   5.539588  11.844211  44.681311   0.083465  72.562329  -0.094642   1.788319   2.057152  -0.909452   4.720366  -5.323390 -13.510982  29.258252 -19.160712 -41.915416  -0.006700 -73.493594  -0.004825   3.912909  -6.128275  -0.170513 -20.926825  -1.844775  -5.421175  93.793115   0.036862  -0.008548  -9.610252  -1.623976   2.773983  -3.466423   0.014033  -0.000702  -2.741954  -4.297176  -7.188679  49.060783  -0.002473  -0.002659 -42.637858  -2.805272   7.372035   0.668005  -0.002952   0.001119
 -2.257616   0.811105   4.183089  -3.561643  27.428832   0.244764  -0.436955  -3.424005  -0.572217   9.824243  -5.447387   0.105047  -9.632323  -1.467552   1.097808   1.676296   1.002946  12.726926   6.080249  11.291367  44.741592   0.075409  72.226358  -0.085583   1.650891   1.768855  -0.805263   4.389915  -5.729771 -13.559982  28.096175 -19.787519 -42.410583  -0.004361 -73.671369  -0.001858   3.956735  -6.082893  -0.155360 -22.654011  -1.362144  -5.372891  93.224680   0.027920  -0.007987 -10.012941  -1.795842   2.671179  -3.141864   0.011971   0.000164  -0.495171  -4.483252  -7.243160  47.208083  -0.003802  -0.003176 -42.557902  -2.937965   7.238901   0.450887  -0.002703   0.000893
 -2.252096   0.812658   4.193584  -4.103373  27.640432   0.563103  -0.062202  -3.815539  -0.573588   9.642663  -6.061795  -0.043486  -9.530302  -1.130256   1.099898   1.897886   0.457566  12.673575   6.581385  10.758718  44.775534   0.068401  71.920815  -0.077458   1.517470   1.522557  -0.776240   4.050425  -6.127369 -13.547558  26.986009 -20.362465 -42.857197  -0.002883 -73.855373   0.000301   4.001243  -6.129498  -0.075325 -24.485693  -0.931135  -5.254388  92.693188   0.020510  -0.007627 -10.392095  -1.954422   2.575456  -2.861739   0.010351   0.000889   1.818585  -4.777202  -7.155602  45.137152  -0.004856  -0.004643 -42.362281  -3.098348   7.083708   0.281346  -0.002401   0.000712
 -2.246634   0.814288   4.204507  -4.591928  27.966748   0.786862   0.266024  -4.231956  -0.534872   9.427889  -6.678537  -0.151028  -9.436308  -0.817105   1.107027   2.096657  -0.070474  12.578215   7.042857  10.249917  44.788862   0.061897  71.642802  -0.069778   1.387899   1.314267  -0.815614   3.705501  -6.513985 -13.487270  25.927120 -20.890324 -43.260319  -0.002164 -74.041107   0.001632   4.046385  -6.238713   0.061448 -26.380750  -0.534888  -5.100926  92.202514   0.014300  -0.007316 -10.748558  -2.101419   2.486085  -2.620309   0.009120   0.001448   4.156074  -5.159735  -6.930291  42.937292  -0.005599  -0.006920 -42.094023  -3.288377   6.918812   0.146676  -0.002077   0.000568
 -2.241117   0.818155   4.215951  -4.899391  28.204395   0.774707   0.500505  -4.548350  -0.384076   9.079229  -7.129571  -0.131650  -9.101923  -0.280016   1.061109   2.405522  -0.543811  12.477290   8.013103   9.795455  44.548141   0.042961  72.239550  -0.048678   1.336865   0.703221  -1.078741   3.440178  -7.021344 -13.379786  24.962658 -21.331445 -43.733741  -0.001403 -74.567404   0.005063   4.090232  -5.927384   0.025675 -27.922032  -0.222533  -4.758628  89.381816   0.000752  -0.013096 -11.088559  -2.213502   2.611968  -2.230385   0.007494   0.002720   6.153943  -5.397547  -6.508456  41.001204  -0.005300  -0.009052 -40.447024  -3.605767   6.941531  -2.124235  -0.001393   0.006240
 -2.235669   0.823091   4.227582  -5.058842  28.339909   0.657021   0.685818  -4.802874  -0.217448   8.680860  -7.509604  -0.069461  -8.776295   0.235755   1.024271   2.704081  -0.986851  12.324958   8.926614   9.399821  44.342977   0.027663  72.871362  -0.031707   1.299885   0.466029  -1.143902   3.188377  -7.486804 -13.190571  24.050205 -21.742410 -44.177961  -0.000962 -75.114862   0.008010   4.130242  -5.839018  -0.010983 -29.415468   0.061753  -4.396335  85.975551  -0.009280  -0.018598 -11.427776  -2.317378   2.729102  -1.833346   0.005881   0.003713   8.013595  -5.606988  -6.048404  38.987306  -0.003753  -0.009604 -38.245454  -3.844306   6.845654  -5.091942  -0.005429   0.014327
